<svg xmlns="http://www.w3.org/2000/svg" viewBox="0 0 301 360.93"><defs><style>.cls-1{fill:#fff;}</style></defs><g id="Capa_2" data-name="Capa 2"><g id="Capa_1-2" data-name="Capa 1">
<path class="cls-1" d="M59.43,319.64v-.92a2.67,2.67,0,0,0,2.13-.82,4,4,0,0,0,.73-2.66V285.35a4.31,4.31,0,0,0-.66-2.53,2,2,0,0,0-1.76-.95h-.44V281H89.17c0,.94,0,1.93.08,3s.09,2,.12,3h-.78l-.33-.82a7.28,7.28,0,0,0-3.05-3.22,9,9,0,0,0-4.55-1.18H65.24v14.6H76.79a9.35,9.35,0,0,0,3.68-.65,3.12,3.12,0,0,0,1.93-1.76l.2-.49h.77v6.92H82.6l-.2-.53a3.72,3.72,0,0,0-2-2,8.09,8.09,0,0,0-3.63-.77H65.24v18.23a3.38,3.38,0,0,0,.92,2.66,3.61,3.61,0,0,0,2.51.82v.92Z"/>
<path class="cls-1" d="M85.4,319.64v-.92a3.44,3.44,0,0,0,2.28-.77,6.59,6.59,0,0,0,1.64-2.42l14.22-34.62h.87l14.8,34.38a7.72,7.72,0,0,0,1.67,2.54,3.23,3.23,0,0,0,2.29.89v.92H114v-.92h.58a2.07,2.07,0,0,0,1.5-.51,1.77,1.77,0,0,0,.54-1.37,3.16,3.16,0,0,0-.08-.68,6.7,6.7,0,0,0-.24-.8c-.11-.3-.27-.68-.48-1.13s-.46-1-.75-1.75a18.32,18.32,0,0,1-5.3-.84c-1.66-.53-3.25-1.1-4.79-1.69s-3-1.15-4.44-1.65a13,13,0,0,0-4.28-.75,8.91,8.91,0,0,0-3,.49c-.71,1.7-1.27,3-1.67,4s-.71,1.74-.92,2.28a7.41,7.41,0,0,0-.39,1.18,5.33,5.33,0,0,0-.07.82,2.38,2.38,0,0,0,.61,1.74,2.25,2.25,0,0,0,1.71.63h.58v.92Zm8.27-12.52a9.54,9.54,0,0,1,2.62-.34,13.5,13.5,0,0,1,4.32.72q2.16.74,4.4,1.62t4.67,1.67a18.52,18.52,0,0,0,5.08.87L103,284.39Z"/>
<path class="cls-1" d="M159.64,319.69H158a7.47,7.47,0,0,1-1.57-.15A4.4,4.4,0,0,1,155,319a9.54,9.54,0,0,1-1.6-1.25c-.58-.55-1.28-1.28-2.1-2.2s-1.81-2.05-2.95-3.39-2.52-2.94-4.14-4.81a5.12,5.12,0,0,1-.7.05H133.28v7.88a4.34,4.34,0,0,0,.68,2.52,2.09,2.09,0,0,0,1.79,1h.48v.92h-8.94v-.92h.43a2.13,2.13,0,0,0,1.84-1,4.34,4.34,0,0,0,.68-2.52V285.35a4.4,4.4,0,0,0-.68-2.56,2.14,2.14,0,0,0-1.84-1h-.43V281H145a13.27,13.27,0,0,1,5.12,1,11.54,11.54,0,0,1,4,2.71,12.35,12.35,0,0,1,2.56,4.18,15.28,15.28,0,0,1,.92,5.39,13.2,13.2,0,0,1-.73,4.48,11.57,11.57,0,0,1-2.08,3.67,12.75,12.75,0,0,1-3.24,2.76,15.09,15.09,0,0,1-4.25,1.72q3.67,4.4,5.87,6.86c1.47,1.65,2.62,2.87,3.44,3.68a7.9,7.9,0,0,0,1.81,1.47,2.55,2.55,0,0,0,1.06.27h.15Zm-12.16-13.95a10.63,10.63,0,0,0,3.7-2.54,11.44,11.44,0,0,0,2.39-3.94,14.64,14.64,0,0,0,.85-5.06,18,18,0,0,0-.68-5.1,12.36,12.36,0,0,0-1.91-3.94,8.86,8.86,0,0,0-3-2.56,8.1,8.1,0,0,0-3.82-.92H133.28v24.95h9.43A12.43,12.43,0,0,0,147.48,305.74Z"/>
<path class="cls-1" d="M163.08,319.64v-.92a3.43,3.43,0,0,0,2.27-.77,6.59,6.59,0,0,0,1.64-2.42l14.22-34.62h.87l14.8,34.38a7.72,7.72,0,0,0,1.67,2.54,3.23,3.23,0,0,0,2.29.89v.92H191.7v-.92h.59a2.06,2.06,0,0,0,1.49-.51,1.77,1.77,0,0,0,.54-1.37,3.16,3.16,0,0,0-.08-.68,5.25,5.25,0,0,0-.24-.8c-.11-.3-.27-.68-.48-1.13s-.46-1-.75-1.75a18.32,18.32,0,0,1-5.3-.84c-1.66-.53-3.25-1.1-4.78-1.69s-3-1.15-4.45-1.65a13,13,0,0,0-4.28-.75,8.91,8.91,0,0,0-3,.49c-.71,1.7-1.27,3-1.67,4s-.71,1.74-.92,2.28a7.41,7.41,0,0,0-.39,1.18,5.33,5.33,0,0,0-.07.82,2.38,2.38,0,0,0,.61,1.74,2.25,2.25,0,0,0,1.71.63h.58v.92Zm8.27-12.52a9.42,9.42,0,0,1,2.61-.34,13.6,13.6,0,0,1,4.33.72q2.15.74,4.4,1.62c1.49.6,3.05,1.16,4.66,1.67a18.52,18.52,0,0,0,5.08.87l-11.75-27.27Z"/>
<path class="cls-1" d="M203.85,319.64v-.92a2.64,2.64,0,0,0,2.12-.84,4.06,4.06,0,0,0,.73-2.69V285.35a4.52,4.52,0,0,0-.65-2.58,2.06,2.06,0,0,0-1.77-.95h-.43v-.91h8.7v.91a2.74,2.74,0,0,0-2.15.85,4,4,0,0,0-.75,2.68v21.48A8.1,8.1,0,0,1,213,304a28.62,28.62,0,0,1,4.91-1.84c1.79-.5,3.65-.93,5.56-1.3s3.72-.81,5.4-1.31a20.4,20.4,0,0,0,4.35-1.81,5.52,5.52,0,0,0,2.51-2.86v-9.48a4.44,4.44,0,0,0-.65-2.58,2,2,0,0,0-1.76-.95h-.49v-.91h8.71v.91a2.66,2.66,0,0,0-2.13.85,4.11,4.11,0,0,0-.73,2.68v29.84a4.45,4.45,0,0,0,.66,2.59,2,2,0,0,0,1.76.94h.44v.92h-8.71v-.92a2.72,2.72,0,0,0,2.15-.84,4,4,0,0,0,.75-2.69V296.43a8.18,8.18,0,0,1-3.38,2.59,30.05,30.05,0,0,1-4.91,1.66q-2.68.69-5.56,1.26a48.71,48.71,0,0,0-5.37,1.4,18.64,18.64,0,0,0-4.35,2,6.06,6.06,0,0,0-2.54,3.19v6.62a4.53,4.53,0,0,0,.65,2.59,2.05,2.05,0,0,0,1.77.94h.48v.92Z"/>
<path class="cls-1" d="M240.3,136.49h3.55v1.25h-6.48c.61-.63,1.19-1.25,1.76-1.85s1.07-1.18,1.51-1.74a10,10,0,0,0,1.05-1.64,3.39,3.39,0,0,0,.39-1.51,2.37,2.37,0,0,0-.17-1,2,2,0,0,0-.45-.66,1.65,1.65,0,0,0-.58-.39,1.67,1.67,0,0,0-.58-.12,1.89,1.89,0,0,0-.91.2,1.64,1.64,0,0,0-.55.49,1.75,1.75,0,0,0-.29.62,2.45,2.45,0,0,0,.07,1.47,2.18,2.18,0,0,0,.42.7q-.19.19-.36.39l-.37.39a1.75,1.75,0,0,1-.45-.45,3.34,3.34,0,0,1-.33-.62,2.74,2.74,0,0,1-.21-.67,3.19,3.19,0,0,1-.08-.64,3.67,3.67,0,0,1,.2-1.19,3,3,0,0,1,.58-1,2.66,2.66,0,0,1,1-.68,3.2,3.2,0,0,1,1.32-.26,2.91,2.91,0,0,1,1.23.26,3,3,0,0,1,.95.7,3.18,3.18,0,0,1,.61,1,3.3,3.3,0,0,1,.22,1.22,4.4,4.4,0,0,1-.25,1.49,8,8,0,0,1-.68,1.42,11.15,11.15,0,0,1-.95,1.4C241.06,135.57,240.69,136,240.3,136.49Z"/>
<path class="cls-1" d="M249.12,132.71a6.7,6.7,0,0,1,.31-2.12,5.23,5.23,0,0,1,.85-1.61,3.65,3.65,0,0,1,1.25-1,3.39,3.39,0,0,1,1.54-.36,3.23,3.23,0,0,1,1.53.37,3.76,3.76,0,0,1,1.25,1,5.14,5.14,0,0,1,.82,1.62,7.46,7.46,0,0,1,.29,2.13,6.35,6.35,0,0,1-.34,2.11,5.56,5.56,0,0,1-.9,1.61,4.05,4.05,0,0,1-1.26,1,3.14,3.14,0,0,1-2.9,0,4.12,4.12,0,0,1-1.25-1.05,5.37,5.37,0,0,1-.87-1.63A6.63,6.63,0,0,1,249.12,132.71Zm1.23,0a5.77,5.77,0,0,0,.2,1.53,4.36,4.36,0,0,0,.57,1.23,3,3,0,0,0,.85.83,1.86,1.86,0,0,0,1,.31,2.07,2.07,0,0,0,1-.29,2.93,2.93,0,0,0,.87-.82,4.39,4.39,0,0,0,.59-1.23,5,5,0,0,0,.22-1.53,6.29,6.29,0,0,0-.13-1.23,4.69,4.69,0,0,0-.45-1.27,3.15,3.15,0,0,0-.82-1,2,2,0,0,0-1.26-.4,2.06,2.06,0,0,0-1.27.39,3.19,3.19,0,0,0-.84,1,4.88,4.88,0,0,0-.47,1.26A6.35,6.35,0,0,0,250.35,132.72Z"/>
<path class="cls-1" d="M265.68,136.49h3.55v1.25h-6.48c.61-.63,1.19-1.25,1.76-1.85s1.06-1.18,1.5-1.74a10.05,10.05,0,0,0,1.06-1.64,3.39,3.39,0,0,0,.39-1.51,2.55,2.55,0,0,0-.17-1,2,2,0,0,0-.45-.66,1.68,1.68,0,0,0-.59-.39,1.62,1.62,0,0,0-.57-.12,1.86,1.86,0,0,0-.91.2,1.79,1.79,0,0,0-.56.49,1.92,1.92,0,0,0-.28.62,2.51,2.51,0,0,0-.08.57,2.74,2.74,0,0,0,.14.9,2.21,2.21,0,0,0,.43.7l-.37.39c-.11.13-.24.26-.36.39a1.61,1.61,0,0,1-.45-.45,4.1,4.1,0,0,1-.34-.62,4,4,0,0,1-.21-.67,3.12,3.12,0,0,1-.07-.64,3.67,3.67,0,0,1,.2-1.19,2.86,2.86,0,0,1,.58-1,2.66,2.66,0,0,1,1-.68,3.2,3.2,0,0,1,1.32-.26,3,3,0,0,1,1.23.26,3.17,3.17,0,0,1,.95.7,3.37,3.37,0,0,1,.61,1,3.3,3.3,0,0,1,.22,1.22,4.41,4.41,0,0,1-.26,1.49,7.94,7.94,0,0,1-.67,1.42,12.44,12.44,0,0,1-1,1.4C266.44,135.57,266.07,136,265.68,136.49Z"/>
<path class="cls-1" d="M277.66,136.49h3.55v1.25h-6.48l1.76-1.85q.84-.9,1.5-1.74a10.05,10.05,0,0,0,1.06-1.64,3.39,3.39,0,0,0,.39-1.51,2.37,2.37,0,0,0-.18-1,1.86,1.86,0,0,0-.44-.66,1.68,1.68,0,0,0-.59-.39,1.62,1.62,0,0,0-.57-.12,1.83,1.83,0,0,0-.91.2,1.68,1.68,0,0,0-.56.49,1.92,1.92,0,0,0-.28.62,2.05,2.05,0,0,0-.08.57,2.74,2.74,0,0,0,.14.9,2.21,2.21,0,0,0,.43.7l-.37.39-.36.39a1.61,1.61,0,0,1-.45-.45,4.1,4.1,0,0,1-.34-.62,4,4,0,0,1-.21-.67,3.12,3.12,0,0,1-.07-.64,3.42,3.42,0,0,1,.2-1.19,2.86,2.86,0,0,1,.58-1,2.66,2.66,0,0,1,1-.68,3.2,3.2,0,0,1,1.32-.26,2.9,2.9,0,0,1,1.22.26,3.21,3.21,0,0,1,1,.7,3.37,3.37,0,0,1,.61,1,3.3,3.3,0,0,1,.22,1.22,4.41,4.41,0,0,1-.26,1.49,7.94,7.94,0,0,1-.67,1.42,12.44,12.44,0,0,1-1,1.4C278.42,135.57,278.05,136,277.66,136.49Z"/>
<path class="cls-1" d="M19.79,137.74V127h6.3v1.22H21v3.53h4.52v1.21H21v3.61h5.3v1.21Z"/>
<path class="cls-1" d="M38.53,128l-.35.46c-.11.15-.22.31-.34.46a3.15,3.15,0,0,0-.31-.27,2.25,2.25,0,0,0-.43-.27,3.38,3.38,0,0,0-.54-.21,2.61,2.61,0,0,0-.64-.08,1.5,1.5,0,0,0-1.25.51,1.82,1.82,0,0,0-.41,1.2,1.35,1.35,0,0,0,.13.64,1.34,1.34,0,0,0,.37.44,2.14,2.14,0,0,0,.51.3,6,6,0,0,0,.59.23c.33.13.67.27,1,.44a4.59,4.59,0,0,1,1,.65,3.23,3.23,0,0,1,.79,1,2.8,2.8,0,0,1,.32,1.37,3.1,3.1,0,0,1-.24,1.25,2.79,2.79,0,0,1-.66.95,2.93,2.93,0,0,1-1,.6,3.27,3.27,0,0,1-1.17.2,3.69,3.69,0,0,1-1.09-.16,4.15,4.15,0,0,1-1-.41,5.19,5.19,0,0,1-.78-.56,3,3,0,0,1-.54-.62l.76-.8c.13.14.28.29.46.45a3.59,3.59,0,0,0,.57.44,3,3,0,0,0,.67.33,2.52,2.52,0,0,0,.79.12,2.24,2.24,0,0,0,.73-.12,1.79,1.79,0,0,0,.62-.34,1.43,1.43,0,0,0,.43-.56,1.73,1.73,0,0,0,.16-.78,1.62,1.62,0,0,0-.28-1,2.38,2.38,0,0,0-.7-.64,4.3,4.3,0,0,0-.87-.41c-.31-.1-.57-.2-.79-.29a5.68,5.68,0,0,1-.63-.3,2.74,2.74,0,0,1-.7-.5,2.89,2.89,0,0,1-.56-.78,2.64,2.64,0,0,1-.25-1.15,3.46,3.46,0,0,1,.13-1,2.52,2.52,0,0,1,1.38-1.61,3.23,3.23,0,0,1,1.36-.26,3.83,3.83,0,0,1,1.21.22A4.36,4.36,0,0,1,38.53,128Z"/>
<path class="cls-1" d="M52.67,127v1.22H49.25v9.56H48v-9.56H44.58V127Z"/>
<path class="cls-1" d="M57.54,136.94a.77.77,0,0,1,.24-.58.69.69,0,0,1,.52-.23.67.67,0,0,1,.51.23.77.77,0,0,1,.24.58.75.75,0,0,1-.24.58.7.7,0,0,1-.51.22.72.72,0,0,1-.52-.22A.75.75,0,0,1,57.54,136.94Z"/>
<path class="cls-1" d="M161.32,237a16.87,16.87,0,0,1-2.92-.22c-6.87-1.27-11.23-5.93-14.92-10.78-4-5.22-5.67-13.56,1.44-21.3,1.79-1.95,5.12-3.84,8.33-5.66s6.7-3.81,7.25-5.23c1.18-3,1.27-4.87-3-8.71-4.9-4.45-4.34-6.66-3.18-8.89a2.78,2.78,0,0,0,.49-1.66,2.88,2.88,0,0,0-1.3-2.18c-1-.56-2.47-.48-4.36.22a.73.73,0,0,1-.87-1.05s2.68-4.58.73-6.93c-1.1-1.33-2.46-1.12-3.77-.93-1,.16-2.19.33-2.73-.69-.45-.84,0-2.24.71-4.18.73-2.12,1.74-5,.9-6.34s-2.94-.92-5.65-.56c-4.7.62-11.14,1.47-15.57-5.32a30.19,30.19,0,0,1-2.06-4.07c-2.18-4.84-5.16-11.47-15-15.82-8.52-3.75-19.41-1.48-21.91-.88v54.75H82.5V125.28a.72.72,0,0,1,.52-.7c.54-.15,13.3-3.64,23.41.82C116.8,130,119.91,136.9,122.19,142a28.29,28.29,0,0,0,2,3.87c3.93,6,9.61,5.28,14.17,4.68,3.09-.41,5.76-.77,7,1.2s.19,4.93-.74,7.61a10,10,0,0,0-.79,3,3.38,3.38,0,0,0,1.23-.06c1.39-.21,3.48-.53,5.1,1.43,1.77,2.13.92,5.22.15,7.06a5.43,5.43,0,0,1,4,.37,4.34,4.34,0,0,1,2,3.19,4.07,4.07,0,0,1-.64,2.57c-.79,1.52-1.6,3.09,2.87,7.15,4.63,4.19,4.77,6.66,3.35,10.3-.75,1.9-4,3.78-7.88,6-3.12,1.77-6.35,3.6-8,5.39-8.4,9.14-2.6,17.8-1.35,19.44,3.51,4.63,7.64,9.06,14,10.24,3.65.67,11.06-.41,14.67-2.13,6-2.87,8.09-8.41,6.36-16.94-1.68-8.31,2-15.27,10.11-19.09,2.66-1.26,5.61-1.44,8.46-1.62,5.76-.35,10.73-.66,13-9.07,1.34-4.88.67-11.89-1.38-14.43-4-4.92-9.93-4.38-18.19,1.67-3.62,2.65-6.73,3.88-9.48,3.75a10.48,10.48,0,0,1-6.34-2.72c-2.52-2-2.47-4.64-2.42-7.16a11.29,11.29,0,0,0-.61-4.89c-.81-1.84-1.16-1.82-1.87-1.76a3.93,3.93,0,0,1-3.32-1.15,3.6,3.6,0,0,1-1.34-2.66A5.63,5.63,0,0,1,167.4,154c-1.7-.07-4.19-.43-4.93-1.86a7.88,7.88,0,0,1-.33-3.93,7.19,7.19,0,0,0,0-1.79c-.83-.58-2.53-.41-4.18-.24-2.68.27-6,.61-6.82-2.54-.62-2.42.59-6.25,2-10.69a60.14,60.14,0,0,0,2.78-11.3c.45-4.41-2-6.79-4.61-9.32-.77-.75-1.56-1.52-2.24-2.33-6.25-7.4-5.85-18.07-2.83-24.85,8-18,25.37-21.7,38.38-16,14.28,6.23,16,15.74,17.16,22.69.67,3.83,1.2,6.86,3.67,8A4.6,4.6,0,0,0,211,98.28c1.38-1.78,1.95-4.82-.61-8-.89-1.12-1.9-2.32-3-3.6-7-8.35-16.6-19.79-14.59-30.48,1-5.12,3.63-8.72,7.52-10.13a9.64,9.64,0,0,1,9.06,1.09c6.27,5.12,9.07,13.19,9.07,26.17v111h-1.44v-111c0-12.5-2.64-20.23-8.54-25a8.3,8.3,0,0,0-7.66-.86c-2.39.88-5.48,3.16-6.59,9.05-1.88,10,7.46,21.15,14.27,29.28,1.08,1.29,2.1,2.5,3,3.62,3.1,3.86,2.27,7.7.63,9.81a6,6,0,0,1-7.31,2c-3.16-1.44-3.78-5-4.49-9-1.22-7-2.74-15.7-16.32-21.62-12.35-5.38-28.85-1.85-36.49,15.3-2.93,6.58-3,16.71,2.62,23.33a27.76,27.76,0,0,0,2.15,2.22c2.6,2.53,5.56,5.4,5,10.51a61.38,61.38,0,0,1-2.84,11.58c-1.28,4.06-2.49,7.89-2,9.91.45,1.81,2.3,1.76,5.28,1.45,2-.21,4-.41,5.25.57.68.53.6,1.62.49,3a7.16,7.16,0,0,0,.17,3.16c.46.87,3.32,1.16,5.11,1.08a.71.71,0,0,1,.69.42.73.73,0,0,1-.15.81s-1.67,1.7-1.6,3.32a2.15,2.15,0,0,0,.84,1.62,2.58,2.58,0,0,0,2.27.8c1.21-.09,2.16,0,3.29,2.62a12.58,12.58,0,0,1,.74,5.5c-.05,2.37-.09,4.42,1.87,6a9.24,9.24,0,0,0,5.51,2.41c2.41.12,5.21-1,8.55-3.47,8.89-6.51,15.67-7,20.17-1.42,2.63,3.25,3,10.89,1.65,15.72-2.58,9.41-8.56,9.78-14.34,10.13-2.72.17-5.52.35-7.94,1.49-7.56,3.56-10.87,9.78-9.3,17.5,1.85,9.14-.56,15.37-7.16,18.52A33.94,33.94,0,0,1,161.32,237Z"/>
<path class="cls-1" d="M91.94,119a9.44,9.44,0,1,1,9.44-9.44A9.45,9.45,0,0,1,91.94,119Zm0-17.44a8,8,0,1,0,8,8A8,8,0,0,0,91.94,101.56Z"/>
<path class="cls-1" d="M180.44,63.72A6.57,6.57,0,1,1,187,57.15,6.58,6.58,0,0,1,180.44,63.72Zm0-11.7a5.13,5.13,0,1,0,5.13,5.13A5.13,5.13,0,0,0,180.44,52Z"/>
<path class="cls-1" d="M154.34,247.19c-29.1,0-39.38-29.05-41.83-37.95-1-3.73-1.49-9.09-2-14.76-.82-9.68-1.76-20.65-5.84-23.37a4.19,4.19,0,0,0-3.82-.34,5.78,5.78,0,0,0-3.82,3c-1.49,3.3.76,8.48,2.94,13.5,2.46,5.65,4.78,11,1.58,13.63-2.41,2-5,2.44-7.58,1.24-6.56-3.08-11.5-16.59-11.5-23.85V149.08h1.44v29.17c0,6.92,4.78,19.78,10.68,22.55,2,1,4,.62,6-1.05,2.36-2,.25-6.81-2-11.95C96.37,182.5,94,177,95.75,173.13a7.2,7.2,0,0,1,4.69-3.74,5.65,5.65,0,0,1,5.06.52c4.66,3.11,5.59,14,6.48,24.45.48,5.6.93,10.9,1.92,14.49,2.39,8.66,12.36,36.9,40.44,36.9Z"/>
<path class="cls-1" d="M218.51,162.86h-1.44c0-9-4.63-12.33-9.53-15.88-4.6-3.34-9.36-6.78-9.36-15.11s4.66-11.47,9.18-14.61c4.77-3.32,9.71-6.75,9.71-16.39h1.44c0,10.39-5.49,14.21-10.33,17.57-4.4,3.07-8.56,6-8.56,13.43s4.26,10.67,8.77,13.94C213.36,149.41,218.51,153.14,218.51,162.86Z"/>
<path class="cls-1" d="M151.22,254.07h-1.44a72.91,72.91,0,0,1-72.84-72.84V72.84A72.91,72.91,0,0,1,149.78,0h1.44a72.91,72.91,0,0,1,72.84,72.84V181.23A72.91,72.91,0,0,1,151.22,254.07ZM149.78,1.44a71.48,71.48,0,0,0-71.4,71.4V181.23a71.48,71.48,0,0,0,71.4,71.4h1.44a71.48,71.48,0,0,0,71.4-71.4V72.84a71.48,71.48,0,0,0-71.4-71.4Z"/>
<path class="cls-1" d="M151.08,247.27h-1.16a67.51,67.51,0,0,1-67.43-67.43V74.23A67.51,67.51,0,0,1,149.92,6.8h1.16a67.51,67.51,0,0,1,67.43,67.43V179.84A67.51,67.51,0,0,1,151.08,247.27Zm-1.16-239a66.07,66.07,0,0,0-66,66V179.84a66.07,66.07,0,0,0,66,66h1.16a66.07,66.07,0,0,0,66-66V74.23a66.07,66.07,0,0,0-66-66Z"/>
<path class="cls-1" d="M3.69,360.56a4.62,4.62,0,0,1-1.47-.23,3.25,3.25,0,0,1-1.17-.68,3.07,3.07,0,0,1-.77-1.14A4,4,0,0,1,0,357v-7.3H1.21v7.25a2.61,2.61,0,0,0,.19,1,2,2,0,0,0,.51.76,2.07,2.07,0,0,0,.78.47,2.91,2.91,0,0,0,1,.17,2.86,2.86,0,0,0,1-.17A2.15,2.15,0,0,0,6,358a2.61,2.61,0,0,0,.19-1v-7.25H7.39V357a4,4,0,0,1-.29,1.55,3.21,3.21,0,0,1-.78,1.14,3.25,3.25,0,0,1-1.17.68A4.61,4.61,0,0,1,3.69,360.56Z"/>
<path class="cls-1" d="M23.21,349.66v11.27c-1.26-1.4-2.5-2.8-3.74-4.19l-3.75-4.18a1.73,1.73,0,0,0-.14-.2l-.13-.2c0,.08,0,.16,0,.24a2.11,2.11,0,0,0,0,.25v7.79H14.28V349.17q1.88,2.16,3.74,4.27l3.74,4.27.14.2.14.2c0-.08,0-.16,0-.24a2.11,2.11,0,0,0,0-.25v-8Z"/>
<path class="cls-1" d="M38.72,360.44V349.66h2.67a5.3,5.3,0,0,1,1.31.15,3,3,0,0,1,1,.48,2.17,2.17,0,0,1,.65.84,2.9,2.9,0,0,1,.24,1.23,3.18,3.18,0,0,1-.44,1.67,2.16,2.16,0,0,1-1.3,1,2.76,2.76,0,0,1,.79.31,2.42,2.42,0,0,1,.68.55,2.93,2.93,0,0,1,.46.79,2.83,2.83,0,0,1,.17,1,2.49,2.49,0,0,1-.28,1.21,2.64,2.64,0,0,1-.73.86,3.38,3.38,0,0,1-1.06.52,4.26,4.26,0,0,1-1.23.18Zm1.21-9.56v3.52h1.58a1.88,1.88,0,0,0,1.37-.5,1.85,1.85,0,0,0,.5-1.34,1.51,1.51,0,0,0-.52-1.3,2.32,2.32,0,0,0-1.38-.38Zm0,4.74v3.6h1.62a2.87,2.87,0,0,0,.85-.11,2,2,0,0,0,.7-.33,1.61,1.61,0,0,0,.47-.54,1.59,1.59,0,0,0,.18-.77,1.57,1.57,0,0,0-.21-.83,1.64,1.64,0,0,0-.53-.58,2.33,2.33,0,0,0-.77-.33,3.8,3.8,0,0,0-.89-.11Z"/>
<path class="cls-1" d="M51.09,360.44V349.66h6.3v1.22H52.3v3.52h4.52v1.22H52.3v3.6h5.3v1.22Z"/>
<path class="cls-1" d="M69.83,350.72l-.35.47-.34.46a2.22,2.22,0,0,0-.31-.27,2.25,2.25,0,0,0-.43-.27,3.38,3.38,0,0,0-.54-.21,2.2,2.2,0,0,0-.64-.08,1.5,1.5,0,0,0-1.25.5,1.82,1.82,0,0,0-.41,1.2,1.28,1.28,0,0,0,.14.65,1.29,1.29,0,0,0,.36.44,2.14,2.14,0,0,0,.51.3c.19.08.39.16.6.23s.66.27,1,.44a4.9,4.9,0,0,1,1,.65,3.35,3.35,0,0,1,.78,1,2.8,2.8,0,0,1,.32,1.37,3.13,3.13,0,0,1-.24,1.25,2.85,2.85,0,0,1-1.63,1.54,3.28,3.28,0,0,1-1.17.21,3.69,3.69,0,0,1-1.09-.16,4.64,4.64,0,0,1-1-.42,4.56,4.56,0,0,1-.78-.56,3,3,0,0,1-.54-.61l.76-.8c.13.14.28.29.46.45a3.59,3.59,0,0,0,.57.44,3,3,0,0,0,.67.32,2.52,2.52,0,0,0,.79.13,2.24,2.24,0,0,0,.73-.12,1.86,1.86,0,0,0,.62-.34,1.59,1.59,0,0,0,.43-.56,1.8,1.8,0,0,0,.17-.79,1.65,1.65,0,0,0-.29-1,2.53,2.53,0,0,0-.7-.64,4.26,4.26,0,0,0-.87-.4c-.3-.11-.57-.2-.79-.3s-.39-.17-.63-.29a2.92,2.92,0,0,1-.7-.5,2.89,2.89,0,0,1-.56-.78,2.83,2.83,0,0,1-.25-1.15,3.57,3.57,0,0,1,.13-1,2.56,2.56,0,0,1,.49-.92,2.48,2.48,0,0,1,.89-.68,3.23,3.23,0,0,1,1.36-.26,3.81,3.81,0,0,1,1.21.21A4.53,4.53,0,0,1,69.83,350.72Z"/>
<path class="cls-1" d="M76.79,355.06a5.69,5.69,0,0,1,.41-2.13,5.45,5.45,0,0,1,1.12-1.76A5.21,5.21,0,0,1,80,350a4.66,4.66,0,0,1,2-.44,4.73,4.73,0,0,1,2,.44,5.36,5.36,0,0,1,1.67,1.19,5.7,5.7,0,0,1,1.14,6A5.52,5.52,0,0,1,85.71,359,5.33,5.33,0,0,1,84,360.13a4.87,4.87,0,0,1-2,.43,4.8,4.8,0,0,1-2-.43A5.18,5.18,0,0,1,78.32,359a5.3,5.3,0,0,1-1.12-1.75A5.62,5.62,0,0,1,76.79,355.06Zm1.21,0a4.45,4.45,0,0,0,.32,1.68,4.39,4.39,0,0,0,.86,1.35,4.18,4.18,0,0,0,1.28.92,3.77,3.77,0,0,0,3.13,0,4.2,4.2,0,0,0,2.14-2.27,4.54,4.54,0,0,0,0-3.35,4.37,4.37,0,0,0-.86-1.36,4,4,0,0,0-1.28-.92,3.77,3.77,0,0,0-3.13,0,4,4,0,0,0-1.28.92,4.56,4.56,0,0,0-.86,1.36A4.43,4.43,0,0,0,78,355.06Z"/>
<path class="cls-1" d="M100.69,358.78l.66,1a5.62,5.62,0,0,1-1.25.56,4.72,4.72,0,0,1-1.41.21,4.85,4.85,0,0,1-2-.43A5.41,5.41,0,0,1,95,359a5.74,5.74,0,0,1-1.12-6A5.81,5.81,0,0,1,95,351.16,5.41,5.41,0,0,1,96.65,350a5,5,0,0,1,3.45-.24,5.09,5.09,0,0,1,1.26.57l-.33.51c-.12.17-.23.34-.34.52a3.86,3.86,0,0,0-1-.43,3.6,3.6,0,0,0-1-.16,3.71,3.71,0,0,0-1.56.34,4,4,0,0,0-1.27.93,4.55,4.55,0,0,0-.87,4.71,4.17,4.17,0,0,0,.87,1.36,4,4,0,0,0,1.27.92,3.71,3.71,0,0,0,1.56.34A3.74,3.74,0,0,0,100.69,358.78Z"/>
<path class="cls-1" d="M107.65,355.06a5.69,5.69,0,0,1,.41-2.13,5.63,5.63,0,0,1,1.12-1.76,5.32,5.32,0,0,1,1.66-1.19,4.66,4.66,0,0,1,2-.44,4.73,4.73,0,0,1,2,.44,5.25,5.25,0,0,1,1.67,1.19,5.68,5.68,0,0,1,1.14,1.76,5.5,5.5,0,0,1,.41,2.13,5.44,5.44,0,0,1-.41,2.14,5.52,5.52,0,0,1-1.14,1.75,5.22,5.22,0,0,1-1.67,1.18,4.87,4.87,0,0,1-2,.43,4.8,4.8,0,0,1-2-.43,5.29,5.29,0,0,1-1.66-1.18,5.47,5.47,0,0,1-1.12-1.75A5.62,5.62,0,0,1,107.65,355.06Zm1.22,0a4.44,4.44,0,0,0,.31,1.68,4.39,4.39,0,0,0,.86,1.35,4.3,4.3,0,0,0,1.28.92,3.79,3.79,0,0,0,1.57.34,3.74,3.74,0,0,0,1.56-.34,4.06,4.06,0,0,0,1.28-.92,4.23,4.23,0,0,0,.87-1.35,4.68,4.68,0,0,0,0-3.35,4.39,4.39,0,0,0-.87-1.36,3.91,3.91,0,0,0-1.28-.92,3.59,3.59,0,0,0-1.56-.34,3.63,3.63,0,0,0-1.57.34A4.13,4.13,0,0,0,110,352a4.56,4.56,0,0,0-.86,1.36A4.43,4.43,0,0,0,108.87,355.06Z"/>
<path class="cls-1" d="M133.82,349.66v11.27l-3.75-4.19-3.74-4.18-.14-.2a2.43,2.43,0,0,0-.14-.2,1.94,1.94,0,0,1,0,.24l0,.25v7.79h-1.22V349.17l3.75,4.27,3.74,4.27.14.2a2.43,2.43,0,0,0,.14.2,1.94,1.94,0,0,1,0-.24l0-.25v-8Z"/>
<path class="cls-1" d="M155,350.72l-.34.47-.35.46a2.08,2.08,0,0,0-.3-.27,2.62,2.62,0,0,0-.43-.27,3.93,3.93,0,0,0-.55-.21,2.18,2.18,0,0,0-.63-.08,1.51,1.51,0,0,0-1.26.5,1.88,1.88,0,0,0-.41,1.2,1.39,1.39,0,0,0,.14.65,1.21,1.21,0,0,0,.37.44,2.14,2.14,0,0,0,.51.3l.59.23c.32.12.67.27,1,.44a4.83,4.83,0,0,1,1,.65,3.23,3.23,0,0,1,.79,1,2.8,2.8,0,0,1,.31,1.37,3.13,3.13,0,0,1-.24,1.25,2.75,2.75,0,0,1-.66.94,2.69,2.69,0,0,1-1,.6,3.28,3.28,0,0,1-1.17.21,3.58,3.58,0,0,1-1.08-.16,5,5,0,0,1-1-.42,4.56,4.56,0,0,1-.78-.56,2.63,2.63,0,0,1-.53-.61l.76-.8a6.35,6.35,0,0,0,.45.45,4.81,4.81,0,0,0,.57.44,3.18,3.18,0,0,0,.67.32,2.56,2.56,0,0,0,.79.13,2.3,2.3,0,0,0,.74-.12,2,2,0,0,0,.62-.34,1.71,1.71,0,0,0,.43-.56,1.8,1.8,0,0,0,.16-.79,1.65,1.65,0,0,0-.29-1,2.53,2.53,0,0,0-.7-.64,4.26,4.26,0,0,0-.87-.4c-.3-.11-.56-.2-.79-.3l-.63-.29a2.87,2.87,0,0,1-.69-.5,2.63,2.63,0,0,1-.81-1.93,3.25,3.25,0,0,1,.13-1,2.7,2.7,0,0,1,.48-.92,2.57,2.57,0,0,1,.89-.68,3.27,3.27,0,0,1,1.36-.26,3.87,3.87,0,0,1,1.22.21A4.39,4.39,0,0,1,155,350.72Z"/>
<path class="cls-1" d="M171.06,360.44h-1.22c-.28-.71-.56-1.42-.85-2.13s-.57-1.43-.86-2.14h-3.22c-.28.71-.56,1.42-.85,2.14l-.86,2.13H162l2.27-5.64,2.26-5.63,2.27,5.63Zm-4.4-7.93-.14-.51a9.7,9.7,0,0,1-.51,1.49l-.6,1.47h2.23l-.5-1.23Z"/>
<path class="cls-1" d="M177.16,360.44V349.66h2.67a5.3,5.3,0,0,1,1.31.15,3,3,0,0,1,1,.48,2.17,2.17,0,0,1,.65.84,2.9,2.9,0,0,1,.24,1.23,3.27,3.27,0,0,1-.43,1.67,2.21,2.21,0,0,1-1.31,1,2.76,2.76,0,0,1,.79.31,2.42,2.42,0,0,1,.68.55,2.93,2.93,0,0,1,.46.79,2.83,2.83,0,0,1,.17,1,2.49,2.49,0,0,1-.28,1.21,2.64,2.64,0,0,1-.73.86,3.38,3.38,0,0,1-1.06.52,4.26,4.26,0,0,1-1.23.18Zm1.21-9.56v3.52H180a1.88,1.88,0,0,0,1.37-.5,1.85,1.85,0,0,0,.5-1.34,1.51,1.51,0,0,0-.52-1.3,2.32,2.32,0,0,0-1.38-.38Zm0,4.74v3.6H180a2.87,2.87,0,0,0,.85-.11,2,2,0,0,0,.7-.33,1.61,1.61,0,0,0,.47-.54,1.59,1.59,0,0,0,.18-.77,1.57,1.57,0,0,0-.21-.83,1.64,1.64,0,0,0-.53-.58,2.33,2.33,0,0,0-.77-.33,3.8,3.8,0,0,0-.89-.11Z"/>
<path class="cls-1" d="M189.43,355.06a5.68,5.68,0,0,1,1.53-3.89,5.21,5.21,0,0,1,1.66-1.19,4.66,4.66,0,0,1,2-.44,4.73,4.73,0,0,1,2,.44,5.63,5.63,0,0,1,2.8,7.22,5.33,5.33,0,0,1-1.13,1.75,5.45,5.45,0,0,1-1.67,1.18,4.87,4.87,0,0,1-2,.43,4.8,4.8,0,0,1-2-.43A5.18,5.18,0,0,1,191,359a5.3,5.3,0,0,1-1.12-1.75A5.44,5.44,0,0,1,189.43,355.06Zm1.21,0a4.45,4.45,0,0,0,.32,1.68A4.2,4.2,0,0,0,193.1,359a3.77,3.77,0,0,0,3.13,0,4.2,4.2,0,0,0,2.14-2.27,4.54,4.54,0,0,0,0-3.35,4.37,4.37,0,0,0-.86-1.36,4,4,0,0,0-1.28-.92,3.77,3.77,0,0,0-3.13,0,4,4,0,0,0-1.28.92,4.37,4.37,0,0,0-.86,1.36A4.43,4.43,0,0,0,190.64,355.06Z"/>
<path class="cls-1" d="M206,360.44V349.66h2.42a4.17,4.17,0,0,1,1.1.16,3.79,3.79,0,0,1,1.14.52,2.91,2.91,0,0,1,.87.91,2.39,2.39,0,0,1,.35,1.34,3.3,3.3,0,0,1-.54,1.93,2.58,2.58,0,0,1-1.61,1l2.2,4.9h-1.32l-2.15-4.81h-1.24v4.81Zm1.22-6h1.27a2.9,2.9,0,0,0,1.06-.17,2.11,2.11,0,0,0,.67-.44,1.62,1.62,0,0,0,.35-.59,1.94,1.94,0,0,0,.1-.61,1.41,1.41,0,0,0-.17-.66,1.82,1.82,0,0,0-.45-.55,2.09,2.09,0,0,0-.69-.38,2.66,2.66,0,0,0-.85-.14h-1.29Z"/>
<path class="cls-1" d="M235.91,360.44H234.7c-.28-.71-.57-1.42-.86-2.13s-.57-1.43-.85-2.14h-3.22c-.28.71-.57,1.42-.86,2.14l-.85,2.13h-1.22l2.27-5.64,2.27-5.63c.76,1.89,1.51,3.77,2.27,5.63Zm-4.4-7.93-.13-.51a12.45,12.45,0,0,1-.51,1.49c-.21.49-.41,1-.6,1.47h2.22c-.17-.41-.33-.82-.49-1.23S231.68,352.92,231.51,352.51Z"/>
<path class="cls-1" d="M258.58,349.66h1.22l-2.27,5.64-2.27,5.63L253,355.3c-.76-1.87-1.51-3.75-2.27-5.64h1.21l1.6,4c.52,1.3,1.05,2.63,1.59,4l.13.51.13-.51c.54-1.33,1.07-2.66,1.6-4S258.05,351,258.58,349.66Z"/>
<path class="cls-1" d="M266.33,349.66h1.22v10.78h-1.22Z"/>
<path class="cls-1" d="M283.74,349.66v11.27q-1.89-2.1-3.74-4.19l-3.75-4.18a1.73,1.73,0,0,0-.14-.2,2.43,2.43,0,0,0-.14-.2l0,.24a2.11,2.11,0,0,0,0,.25v7.79H274.8V349.17l3.75,4.27,3.74,4.27.14.2.14.2a1.94,1.94,0,0,1,0-.24c0-.08,0-.17,0-.25v-8Z"/>
<path class="cls-1" d="M290.53,355.06a5.68,5.68,0,0,1,1.53-3.89,5.21,5.21,0,0,1,1.66-1.19,4.88,4.88,0,0,1,4,0,5.4,5.4,0,0,1,1.68,1.19,5.66,5.66,0,0,1,1.13,6,5.4,5.4,0,0,1-2.81,2.93,5,5,0,0,1-4,0,5.18,5.18,0,0,1-1.66-1.18,5.3,5.3,0,0,1-1.12-1.75A5.44,5.44,0,0,1,290.53,355.06Zm1.21,0a4.45,4.45,0,0,0,.32,1.68,4.21,4.21,0,0,0,.86,1.35,4.06,4.06,0,0,0,1.28.92,3.77,3.77,0,0,0,3.13,0,4.18,4.18,0,0,0,1.28-.92,4.39,4.39,0,0,0,.86-1.35,4.54,4.54,0,0,0,0-3.35,4.56,4.56,0,0,0-.86-1.36,4,4,0,0,0-1.28-.92,3.77,3.77,0,0,0-3.13,0,3.91,3.91,0,0,0-1.28.92,4.37,4.37,0,0,0-.86,1.36A4.43,4.43,0,0,0,291.74,355.06Z"/></g></g></svg>